<svg width="48" height="51" viewBox="0 0 48 51" fill="none" xmlns="http://www.w3.org/2000/svg">
<path d="M47.115 27.7394C47.115 40.5224 36.568 50.885 23.5575 50.885C10.5471 50.885 0 40.5224 0 27.7394C0 14.9564 10.5471 4.59375 23.5575 4.59375C36.568 4.59375 47.115 14.9564 47.115 27.7394Z" fill="#FFAD0F"/>
<path d="M0.0101615 23.146H47.115V27.185H0.0101615V23.146Z" fill="#FFAD0F"/>
<ellipse cx="23.558" cy="23.1456" rx="23.5575" ry="23.1456" fill="#FFCF0F"/>
<path fill-rule="evenodd" clip-rule="evenodd" d="M42.9001 24.2775C42.9225 23.903 42.9338 23.5256 42.9338 23.1457C42.9338 12.6315 34.2587 4.10809 23.5575 4.10809C12.8562 4.10809 4.18115 12.6315 4.18115 23.1457C4.18115 23.5243 4.1924 23.9004 4.2146 24.2736C4.8106 14.2863 13.2427 6.36784 23.5572 6.36784C33.8731 6.36784 42.3061 14.2884 42.9001 24.2775Z" fill="#FFAD0F"/>
</svg>
